<svg width="87" height="58" viewBox="0 0 87 58" fill="none" xmlns="http://www.w3.org/2000/svg">
<mask id="mask0_74_218" style="mask-type:alpha" maskUnits="userSpaceOnUse" x="14" y="0" width="59" height="42">
<rect x="14" width="59" height="42" fill="#D9D9D9"/>
</mask>
<g mask="url(#mask0_74_218)">
<path d="M18.9166 39.7084V34.7917H68.0833V39.7084H18.9166ZM21.375 32.3334V29.875C21.375 24.6306 22.9831 20.0007 26.1994 15.9855C29.4158 11.9702 33.5437 9.4299 38.5833 8.36462V7.75004C38.5833 6.39796 39.0647 5.24049 40.0276 4.27764C40.9904 3.3148 42.1479 2.83337 43.5 2.83337C44.852 2.83337 46.0095 3.3148 46.9724 4.27764C47.9352 5.24049 48.4166 6.39796 48.4166 7.75004V8.36462C53.4972 9.4299 57.6354 11.9702 60.8312 15.9855C64.027 20.0007 65.625 24.6306 65.625 29.875V32.3334H21.375ZM26.4145 27.4167H60.5854C60.0118 23.1556 58.1066 19.632 54.8698 16.8459C51.6329 14.0598 47.843 12.6667 43.5 12.6667C39.1569 12.6667 35.3772 14.0598 32.1609 16.8459C28.9446 19.632 27.0291 23.1556 26.4145 27.4167Z" fill="black" fill-opacity="0.8"/>
</g>
<path d="M12.9639 52.438C12.9639 52.998 12.8193 53.4693 12.5299 53.852C12.2406 54.2253 11.8486 54.51 11.3539 54.706C10.8686 54.902 10.3366 55 9.75792 55H4.95592V45.06H10.2759C10.7426 45.06 11.1439 45.186 11.4799 45.438C11.8253 45.6807 12.0866 45.998 12.2639 46.39C12.4506 46.7727 12.5439 47.174 12.5439 47.594C12.5439 48.07 12.4226 48.5227 12.1799 48.952C11.9373 49.3813 11.5826 49.6987 11.1159 49.904C11.6853 50.072 12.1333 50.3753 12.4599 50.814C12.7959 51.2527 12.9639 51.794 12.9639 52.438ZM11.0179 52.074C11.0179 51.822 10.9666 51.598 10.8639 51.402C10.7613 51.1967 10.6213 51.038 10.4439 50.926C10.2759 50.8047 10.0799 50.744 9.85592 50.744H6.88792V53.362H9.75792C9.99126 53.362 10.2013 53.306 10.3879 53.194C10.5839 53.0727 10.7379 52.914 10.8499 52.718C10.9619 52.522 11.0179 52.3073 11.0179 52.074ZM6.88792 46.712V49.218H9.46392C9.67859 49.218 9.87459 49.1667 10.0519 49.064C10.2293 48.9613 10.3693 48.8167 10.4719 48.63C10.5839 48.4433 10.6399 48.2193 10.6399 47.958C10.6399 47.706 10.5886 47.4867 10.4859 47.3C10.3926 47.1133 10.2619 46.9687 10.0939 46.866C9.93526 46.7633 9.75326 46.712 9.54792 46.712H6.88792ZM17.6775 55.14C17.0802 55.14 16.5435 55.042 16.0675 54.846C15.5915 54.6407 15.1855 54.3607 14.8495 54.006C14.5229 53.6513 14.2709 53.2453 14.0935 52.788C13.9162 52.3307 13.8275 51.85 13.8275 51.346C13.8275 50.8327 13.9162 50.3473 14.0935 49.89C14.2709 49.4327 14.5229 49.0267 14.8495 48.672C15.1855 48.3173 15.5915 48.042 16.0675 47.846C16.5435 47.6407 17.0802 47.538 17.6775 47.538C18.2749 47.538 18.8069 47.6407 19.2735 47.846C19.7495 48.042 20.1555 48.3173 20.4915 48.672C20.8275 49.0267 21.0795 49.4327 21.2475 49.89C21.4249 50.3473 21.5135 50.8327 21.5135 51.346C21.5135 51.85 21.4249 52.3307 21.2475 52.788C21.0795 53.2453 20.8275 53.6513 20.4915 54.006C20.1649 54.3607 19.7635 54.6407 19.2875 54.846C18.8115 55.042 18.2749 55.14 17.6775 55.14ZM15.7595 51.346C15.7595 51.7753 15.8435 52.158 16.0115 52.494C16.1795 52.8207 16.4082 53.0773 16.6975 53.264C16.9869 53.4507 17.3135 53.544 17.6775 53.544C18.0322 53.544 18.3542 53.4507 18.6435 53.264C18.9329 53.068 19.1615 52.8067 19.3295 52.48C19.5069 52.144 19.5955 51.7613 19.5955 51.332C19.5955 50.912 19.5069 50.534 19.3295 50.198C19.1615 49.862 18.9329 49.6007 18.6435 49.414C18.3542 49.2273 18.0322 49.134 17.6775 49.134C17.3135 49.134 16.9869 49.232 16.6975 49.428C16.4082 49.6147 16.1795 49.876 16.0115 50.212C15.8435 50.5387 15.7595 50.9167 15.7595 51.346ZM29.5978 55H27.7218V50.884C27.7218 50.296 27.6191 49.8667 27.4138 49.596C27.2084 49.3253 26.9238 49.19 26.5598 49.19C26.3078 49.19 26.0511 49.2553 25.7898 49.386C25.5378 49.5167 25.3091 49.6987 25.1038 49.932C24.8984 50.156 24.7491 50.4173 24.6558 50.716V55H22.7798V47.664H24.4738V49.022C24.6604 48.7047 24.8984 48.4387 25.1878 48.224C25.4771 48 25.8084 47.832 26.1818 47.72C26.5644 47.5987 26.9658 47.538 27.3858 47.538C27.8431 47.538 28.2164 47.622 28.5058 47.79C28.8044 47.9487 29.0284 48.168 29.1778 48.448C29.3364 48.7187 29.4438 49.0267 29.4998 49.372C29.5651 49.7173 29.5978 50.0673 29.5978 50.422V55ZM37.0388 45.06H38.9988L42.6528 55H40.6648L39.7408 52.522H36.2688L35.3588 55H33.3708L37.0388 45.06ZM39.3908 51.164L38.0188 47.062L36.5908 51.164H39.3908ZM47.957 55.14C47.3877 55.14 46.8837 55.014 46.445 54.762C46.0157 54.5007 45.6797 54.1507 45.437 53.712V57.982H43.561V47.664H45.199V48.924C45.479 48.4947 45.8337 48.1587 46.263 47.916C46.6924 47.664 47.1824 47.538 47.733 47.538C48.2277 47.538 48.6804 47.636 49.091 47.832C49.511 48.028 49.875 48.3033 50.183 48.658C50.491 49.0033 50.729 49.4047 50.897 49.862C51.0744 50.31 51.163 50.7953 51.163 51.318C51.163 52.0273 51.023 52.6713 50.743 53.25C50.4724 53.8287 50.0944 54.2907 49.609 54.636C49.133 54.972 48.5824 55.14 47.957 55.14ZM47.327 53.544C47.6164 53.544 47.8777 53.4833 48.111 53.362C48.3444 53.2407 48.545 53.0773 48.713 52.872C48.8904 52.6573 49.021 52.4193 49.105 52.158C49.1984 51.8873 49.245 51.6073 49.245 51.318C49.245 51.01 49.1937 50.7253 49.091 50.464C48.9977 50.2027 48.8577 49.974 48.671 49.778C48.4844 49.5727 48.265 49.414 48.013 49.302C47.7704 49.19 47.5044 49.134 47.215 49.134C47.0377 49.134 46.8557 49.1667 46.669 49.232C46.4917 49.288 46.319 49.372 46.151 49.484C45.983 49.596 45.8337 49.7267 45.703 49.876C45.5817 50.0253 45.493 50.1887 45.437 50.366V52.088C45.549 52.3587 45.6984 52.606 45.885 52.83C46.081 53.054 46.305 53.2313 46.557 53.362C46.809 53.4833 47.0657 53.544 47.327 53.544ZM56.8301 55.14C56.2607 55.14 55.7567 55.014 55.3181 54.762C54.8887 54.5007 54.5527 54.1507 54.3101 53.712V57.982H52.4341V47.664H54.0721V48.924C54.3521 48.4947 54.7067 48.1587 55.1361 47.916C55.5654 47.664 56.0554 47.538 56.6061 47.538C57.1007 47.538 57.5534 47.636 57.9641 47.832C58.3841 48.028 58.7481 48.3033 59.0561 48.658C59.3641 49.0033 59.6021 49.4047 59.7701 49.862C59.9474 50.31 60.0361 50.7953 60.0361 51.318C60.0361 52.0273 59.8961 52.6713 59.6161 53.25C59.3454 53.8287 58.9674 54.2907 58.4821 54.636C58.0061 54.972 57.4554 55.14 56.8301 55.14ZM56.2001 53.544C56.4894 53.544 56.7507 53.4833 56.9841 53.362C57.2174 53.2407 57.4181 53.0773 57.5861 52.872C57.7634 52.6573 57.8941 52.4193 57.9781 52.158C58.0714 51.8873 58.1181 51.6073 58.1181 51.318C58.1181 51.01 58.0667 50.7253 57.9641 50.464C57.8707 50.2027 57.7307 49.974 57.5441 49.778C57.3574 49.5727 57.1381 49.414 56.8861 49.302C56.6434 49.19 56.3774 49.134 56.0881 49.134C55.9107 49.134 55.7287 49.1667 55.5421 49.232C55.3647 49.288 55.1921 49.372 55.0241 49.484C54.8561 49.596 54.7067 49.7267 54.5761 49.876C54.4547 50.0253 54.3661 50.1887 54.3101 50.366V52.088C54.4221 52.3587 54.5714 52.606 54.7581 52.83C54.9541 53.054 55.1781 53.2313 55.4301 53.362C55.6821 53.4833 55.9387 53.544 56.2001 53.544ZM64.7091 55.14C64.1211 55.14 63.5891 55.042 63.1131 54.846C62.6371 54.6407 62.2311 54.3653 61.8951 54.02C61.5591 53.6653 61.2978 53.264 61.1111 52.816C60.9338 52.3587 60.8451 51.878 60.8451 51.374C60.8451 50.674 60.9991 50.0347 61.3071 49.456C61.6245 48.8773 62.0725 48.4153 62.6511 48.07C63.2391 47.7153 63.9298 47.538 64.7231 47.538C65.5258 47.538 66.2118 47.7153 66.7811 48.07C67.3505 48.4153 67.7845 48.8773 68.0831 49.456C68.3911 50.0253 68.5451 50.6413 68.5451 51.304C68.5451 51.416 68.5405 51.5327 68.5311 51.654C68.5218 51.766 68.5125 51.8593 68.5031 51.934H62.8331C62.8705 52.3073 62.9778 52.634 63.1551 52.914C63.3418 53.194 63.5751 53.4087 63.8551 53.558C64.1445 53.698 64.4525 53.768 64.7791 53.768C65.1525 53.768 65.5025 53.6793 65.8291 53.502C66.1651 53.3153 66.3938 53.0727 66.5151 52.774L68.1251 53.222C67.9478 53.5953 67.6911 53.9267 67.3551 54.216C67.0285 54.5053 66.6411 54.734 66.1931 54.902C65.7451 55.0607 65.2505 55.14 64.7091 55.14ZM62.7911 50.744H66.6271C66.5898 50.3707 66.4825 50.0487 66.3051 49.778C66.1371 49.498 65.9131 49.2833 65.6331 49.134C65.3531 48.9753 65.0405 48.896 64.6951 48.896C64.3591 48.896 64.0511 48.9753 63.7711 49.134C63.5005 49.2833 63.2765 49.498 63.0991 49.778C62.9311 50.0487 62.8285 50.3707 62.7911 50.744ZM65.3111 46.81L64.1071 46.446L64.8631 44.78H66.6131L65.3111 46.81ZM74.0156 54.622C73.857 54.6873 73.6656 54.762 73.4416 54.846C73.2176 54.93 72.975 54.9953 72.7136 55.042C72.4616 55.098 72.205 55.126 71.9436 55.126C71.5983 55.126 71.281 55.0653 70.9916 54.944C70.7023 54.8227 70.469 54.6313 70.2916 54.37C70.1236 54.0993 70.0396 53.7493 70.0396 53.32V49.106H69.0736V47.664H70.0396V45.284H71.9156V47.664H73.4556V49.106H71.9156V52.69C71.925 52.942 71.995 53.124 72.1256 53.236C72.2563 53.348 72.4196 53.404 72.6156 53.404C72.8116 53.404 73.003 53.3713 73.1896 53.306C73.3763 53.2407 73.5256 53.1847 73.6376 53.138L74.0156 54.622ZM74.9927 55V47.664H76.8687V55H74.9927ZM74.9927 46.642V44.78H76.8687V46.642H74.9927ZM82.957 54.622C82.7984 54.6873 82.607 54.762 82.383 54.846C82.159 54.93 81.9164 54.9953 81.655 55.042C81.403 55.098 81.1464 55.126 80.885 55.126C80.5397 55.126 80.2224 55.0653 79.933 54.944C79.6437 54.8227 79.4104 54.6313 79.233 54.37C79.065 54.0993 78.981 53.7493 78.981 53.32V49.106H78.015V47.664H78.981V45.284H80.857V47.664H82.397V49.106H80.857V52.69C80.8664 52.942 80.9364 53.124 81.067 53.236C81.1977 53.348 81.361 53.404 81.557 53.404C81.753 53.404 81.9444 53.3713 82.131 53.306C82.3177 53.2407 82.467 53.1847 82.579 53.138L82.957 54.622Z" fill="black" fill-opacity="0.8"/>
</svg>
